<?xml version='1.0' encoding='utf-8'?>
<svg xmlns="http://www.w3.org/2000/svg" version="1.0" width="1024.000000pt" height="1024.000000pt" viewBox="0 0 1024.000000 1024.000000" preserveAspectRatio="xMidYMid meet">

<rect x="0" y="0" width="1024.0" height="1024.0" rx="204.8" ry="204.8" fill="white" /><g transform="translate(0.000000,1024.000000) scale(0.100000,-0.100000)" fill="#000000" stroke="none">
<path d="M7182 9553 c2 -4 27 -54 55 -110 75 -145 120 -259 151 -379 l27 -103 95 -67 c312 -222 461 -399 516 -614 20 -78 14 -240 -11 -335 -40 -149 -158 -343 -302 -495 -291 -309 -1048 -811 -2250 -1491 l-202 -114 -1 -92 c0 -51 2 -93 5 -93 3 0 135 80 293 178 388 242 585 359 933 557 661 377 741 423 904 523 94 57 213 134 265 170 416 287 699 615 776 902 23 89 24 230 1 296 -22 63 -94 173 -156 238 -54 57 -195 164 -299 227 -71 42 -75 47 -123 139 -125 240 -341 479 -547 604 -66 40 -136 72 -130 59z m453 -521 c15 -37 30 -74 33 -82 3 -8 -24 12 -59 45 -52 49 -69 72 -91 130 -15 38 -28 72 -28 73 0 2 27 -19 59 -47 48 -41 64 -64 86 -119z" />
<path d="M4988 8718 c-130 -6 -384 -43 -493 -71 l-50 -13 -46 -250 c-26 -137 -46 -250 -45 -251 1 -1 50 6 108 17 168 30 357 43 528 37 142 -6 373 -37 405 -54 7 -5 -86 -8 -208 -9 -343 -1 -649 -52 -897 -149 -56 -22 -60 -22 -60 -5 0 40 22 236 47 418 14 106 24 195 20 198 -3 3 -57 -9 -120 -26 l-115 -32 -6 -47 c-7 -54 -39 -398 -61 -659 -13 -147 -20 -189 -36 -217 -45 -75 -48 -36 -20 240 10 99 18 181 17 182 -6 7 -210 -76 -217 -89 -15 -27 -104 -626 -94 -636 2 -3 25 14 51 37 135 119 480 310 669 371 116 37 265 71 420 97 85 14 164 17 350 17 213 -1 256 -4 385 -27 382 -68 736 -222 1031 -447 43 -33 80 -60 81 -60 12 0 -71 621 -85 643 -15 22 -217 100 -217 83 0 -6 9 -99 20 -206 26 -256 27 -241 -9 -229 -35 12 -29 -28 -82 509 -23 239 -44 436 -45 438 -3 5 -227 71 -241 72 -7 0 -10 -6 -8 -12 12 -34 65 -548 65 -625 -1 -88 -1 -88 -16 -53 -27 60 -99 327 -144 530 -24 107 -44 196 -45 197 0 1 -68 16 -150 32 -233 46 -444 61 -687 49z" />
<path d="M8550 8026 c0 -56 -33 -182 -69 -267 -70 -162 -186 -314 -364 -478 -278 -255 -605 -465 -1437 -921 -466 -255 -660 -365 -1065 -601 -148 -86 -291 -167 -317 -180 -43 -20 -46 -25 -33 -39 22 -24 45 -86 45 -120 0 -63 -51 -131 -120 -160 l-30 -12 0 -581 0 -581 27 -28 c23 -24 25 -31 15 -53 -14 -31 -23 -31 -61 1 -47 39 -53 75 -49 313 l3 213 -49 -6 c-60 -7 -160 -52 -208 -95 -46 -40 -91 -111 -113 -179 -26 -81 -18 -209 19 -289 70 -153 259 -254 421 -224 210 39 335 199 323 415 -4 62 -11 95 -33 141 -32 66 -114 154 -164 175 l-31 13 2 220 3 220 490 231 c532 252 860 419 1340 686 667 370 970 572 1218 810 180 172 289 326 343 486 25 75 26 86 21 224 -6 161 -38 366 -88 561 -17 68 -33 126 -35 128 -2 2 -4 -8 -4 -23z m-141 -951 c0 -22 -29 -64 -100 -143 l-46 -51 -32 159 -32 159 78 91 77 90 28 -142 c15 -79 27 -152 27 -163z m-478 -295 c28 -145 29 -153 12 -166 -10 -7 -52 -37 -93 -67 -41 -30 -76 -54 -77 -53 -9 8 -61 312 -54 319 15 15 176 125 179 122 1 -1 16 -71 33 -155z m-507 -312 c15 -79 29 -154 31 -168 5 -23 -4 -30 -92 -80 -53 -30 -100 -56 -104 -58 -7 -3 -71 319 -65 326 8 7 191 120 197 121 4 1 19 -63 33 -141z m-540 -315 c16 -82 30 -157 32 -168 4 -17 -13 -29 -96 -74 -56 -29 -103 -51 -106 -49 -5 5 -64 294 -64 313 0 11 183 124 201 125 3 0 18 -66 33 -147z m-521 -298 c15 -82 27 -153 27 -157 0 -8 -200 -111 -205 -106 -9 9 -64 313 -58 316 5 1 51 27 103 56 52 29 98 50 101 47 3 -3 18 -73 32 -156z m-548 -260 c14 -77 28 -147 30 -155 4 -12 -23 -28 -101 -64 -58 -26 -107 -46 -108 -44 -7 8 -57 269 -54 280 3 9 198 127 205 124 0 -1 13 -64 28 -141z" />
<path d="M4975 7669 c-547 -28 -1068 -282 -1422 -691 -294 -341 -463 -675 -542 -1075 -33 -162 -57 -340 -49 -348 12 -12 132 -26 279 -32 l156 -6 7 69 c36 357 157 675 361 946 279 372 688 618 1138 684 150 22 450 15 582 -14 313 -68 600 -222 833 -447 l118 -114 50 32 c294 189 305 197 295 216 -24 44 -186 213 -278 290 -138 115 -253 190 -418 271 -341 169 -702 241 -1110 219z m216 -165 c51 -54 16 -154 -56 -154 -41 0 -71 23 -85 64 -28 87 79 156 141 90z m-1116 -416 c22 -26 26 -39 21 -67 -8 -50 -49 -85 -90 -77 -40 8 -74 42 -82 82 -9 46 34 94 86 94 31 0 44 -6 65 -32z m2249 10 c15 -13 29 -37 32 -54 5 -26 0 -38 -24 -65 -39 -44 -93 -46 -128 -5 -35 40 -32 87 7 120 38 32 80 33 113 4z m-2829 -651 c36 -31 38 -86 5 -122 -53 -56 -150 -17 -150 60 0 75 87 112 145 62z" />
<path d="M5076 7024 c-14 -14 -16 -86 -16 -640 l0 -625 -47 -20 -47 -20 75 -50 c41 -27 73 -56 73 -63 -1 -9 12 -15 37 -18 l39 -4 0 722 c0 649 -2 722 -16 728 -29 11 -83 6 -98 -10z" />
<path d="M4914 6841 c-267 -154 -251 -555 29 -697 l47 -24 0 375 c0 293 -3 375 -12 375 -7 0 -36 -13 -64 -29z" />
<path d="M3050 6775 c-343 -134 -516 -221 -667 -334 -222 -165 -296 -328 -219 -486 44 -91 158 -199 271 -257 84 -43 245 -99 325 -113 l36 -6 18 133 c55 408 169 732 365 1031 39 59 67 107 63 106 -4 -1 -90 -34 -192 -74z" />
<path d="M5265 6490 c0 -192 2 -350 6 -350 3 0 25 13 50 28 221 141 224 492 5 640 -26 17 -51 32 -55 32 -3 0 -6 -157 -6 -350z" />
<path d="M4118 6309 c-83 -12 -165 -57 -230 -128 -81 -87 -103 -147 -103 -287 0 -108 1 -112 38 -185 20 -40 52 -91 70 -111 l33 -37 134 25 c177 32 440 96 440 106 0 4 -4 8 -9 8 -15 0 -254 131 -305 167 -34 24 -46 40 -51 66 -8 43 4 68 63 130 68 70 92 67 254 -28 70 -41 129 -75 132 -75 8 0 -15 84 -36 123 -82 163 -251 251 -430 226z" />
<path d="M4236 5999 c-14 -17 -26 -34 -26 -38 0 -21 45 -48 350 -216 113 -62 254 -142 315 -179 l109 -65 18 27 c9 15 34 35 55 44 23 11 31 18 19 18 -10 0 -42 14 -70 32 -169 106 -705 408 -723 408 -12 0 -33 -14 -47 -31z" />
<path d="M2050 5828 c0 -51 43 -147 100 -219 70 -87 236 -190 404 -248 518 -182 1166 -172 1871 28 131 37 351 111 376 127 7 4 -19 23 -60 46 l-70 39 -96 -30 c-702 -225 -1503 -251 -2038 -64 -226 78 -398 198 -463 323 l-23 45 -1 -47z" />
<path d="M7077 5691 l-198 -106 7 -30 c12 -51 6 -294 -10 -415 -35 -263 -135 -517 -312 -790 -87 -135 -337 -374 -514 -491 -93 -62 -310 -169 -410 -203 -190 -63 -469 -91 -680 -67 -283 32 -597 150 -795 298 -101 76 -262 228 -350 331 l-58 68 -46 -8 c-25 -4 -137 -11 -248 -14 -112 -4 -203 -10 -203 -14 0 -3 31 -51 68 -107 202 -297 445 -527 744 -705 314 -186 588 -272 943 -297 489 -34 965 114 1393 433 224 167 478 454 624 706 199 343 291 680 292 1070 0 183 -21 400 -42 436 -5 7 -73 -24 -205 -95z m74 -270 c56 -56 23 -142 -55 -144 -32 -1 -44 5 -68 32 -24 27 -29 39 -24 65 14 73 95 99 147 47z m-217 -852 c21 -16 26 -29 26 -62 -1 -59 -36 -97 -90 -97 -33 0 -80 53 -80 90 0 42 47 90 88 90 16 0 41 -9 56 -21z m-2883 -709 c29 -16 51 -67 44 -101 -8 -37 -49 -69 -87 -69 -41 0 -88 48 -88 90 0 62 76 109 131 80z m2273 -22 c55 -51 33 -140 -39 -154 -87 -16 -139 92 -75 156 27 27 82 26 114 -2z m-1153 -363 c53 -28 63 -87 23 -134 -35 -42 -84 -43 -125 -2 -32 33 -36 58 -14 101 26 50 64 62 116 35z" />
<path d="M2040 5249 c0 -464 -2 -447 92 -536 156 -147 404 -249 733 -303 61 -10 111 -17 113 -16 1 2 -6 45 -17 97 -21 104 -54 354 -74 553 l-12 130 -106 26 c-151 38 -260 75 -366 125 -159 75 -240 140 -315 254 l-48 74 0 -404z m388 -78 c20 -10 60 -26 88 -35 l51 -17 6 -176 c3 -98 4 -179 1 -182 -2 -2 -43 9 -92 25 l-87 29 -7 85 c-8 108 -10 290 -3 290 3 0 22 -8 43 -19z" />
<path d="M7520 5623 l-35 -4 0 -257 c-1 -141 -5 -283 -11 -315 l-11 -58 91 3 c90 3 91 3 106 33 17 35 21 352 7 488 -13 114 -25 123 -147 110z" />
<path d="M5069 5491 c-40 -40 -40 -89 0 -133 23 -26 36 -32 67 -31 51 1 94 47 94 99 0 50 -45 94 -95 94 -27 0 -44 -8 -66 -29z" />
<path d="M4930 5443 c-87 -37 -343 -126 -468 -163 -429 -123 -871 -177 -1249 -151 -98 7 -197 16 -221 20 l-43 9 6 -82 c18 -219 78 -645 97 -680 10 -18 23 -18 267 -13 259 5 392 19 591 58 289 58 731 204 1073 354 l107 47 0 207 0 206 -37 20 c-52 29 -77 67 -83 130 l-5 53 -35 -15z m-230 -215 c0 -2 14 -73 30 -158 16 -85 30 -158 30 -162 0 -6 -136 -58 -202 -76 l-36 -10 -32 165 c-17 91 -30 166 -28 168 15 12 238 80 238 73z m-556 -328 c15 -85 30 -163 32 -172 4 -13 -5 -19 -33 -27 -59 -17 -192 -35 -199 -28 -7 7 -64 309 -64 340 0 12 8 17 28 17 15 1 65 9 112 19 47 10 88 15 91 12 4 -3 19 -76 33 -161z m-591 -92 c15 -100 24 -184 21 -187 -3 -3 -54 -6 -112 -6 l-107 0 -25 180 -26 180 81 6 c44 3 94 6 111 7 l30 2 27 -182z" />
<path d="M5983 5080 c-72 -15 -156 -61 -214 -119 -204 -205 -147 -546 113 -670 183 -87 370 -52 506 93 83 90 106 150 107 281 0 92 -3 105 -32 168 -89 187 -281 286 -480 247z" />
<path d="M3680 3516 c0 -3 11 -74 24 -158 14 -84 32 -209 42 -278 9 -69 20 -134 24 -145 5 -13 42 -35 110 -63 56 -24 103 -42 104 -40 2 2 -5 98 -15 213 -9 116 -16 211 -14 213 1 1 16 -13 32 -32 37 -42 33 -4 83 -685 32 -433 44 -548 56 -562 8 -9 38 -26 67 -37 29 -11 76 -30 106 -41 l54 -22 -7 93 c-4 51 -13 210 -21 353 -8 143 -17 298 -20 345 l-5 85 20 -55 c40 -106 97 -445 121 -722 l12 -136 96 -26 c167 -45 325 -67 512 -73 242 -8 450 16 677 77 l80 22 6 96 c21 295 58 574 97 713 28 102 40 118 34 44 -8 -92 -37 -807 -33 -811 7 -6 203 78 220 95 18 16 34 183 94 949 17 215 19 225 41 239 13 9 26 14 28 11 3 -3 -2 -76 -10 -163 -8 -87 -15 -166 -15 -176 0 -16 13 -12 98 27 53 24 104 53 112 63 10 11 27 98 49 242 18 123 39 252 46 287 7 34 11 62 9 62 -1 0 -38 -26 -81 -59 -114 -86 -240 -163 -393 -240 -308 -156 -579 -227 -916 -238 -385 -13 -703 58 -1067 238 -126 62 -305 175 -399 252 -32 26 -58 45 -58 43z m960 -640 c235 -55 353 -69 556 -69 105 0 217 3 250 6 l59 7 -40 -16 c-58 -22 -267 -62 -365 -69 -175 -14 -340 24 -516 120 -80 44 -105 63 -66 51 9 -3 64 -17 122 -30z" />
</g>
</svg>